#N canvas 0 0 2160 1304 12;
#N canvas 132 110 1924 1020 comport 0;
#X obj 15 60 inlet;
#X obj 175 392 outlet;
#X obj 15 102 sel 13 10;
#X msg 75 163 add2 \$1;
#X msg 75 251, f 8;
#X obj 15 163 t b b;
#X obj 15 196 bng 19 250 50 0 empty empty empty 0 -10 0 12 #fcfcfc #000000 #000000;
#X msg 15 221 set;
#X text 162 63 Por comport entran los bytes separados y son interpretados como "mensajes" cada uno y no todos juntos;
#X text 158 229 Usamos una caja de mensaje vacía como un "array" simple para almacenar los bytes y después mandarlos todos juntos hacia el outlet;
#X obj 73 392 s Bluetooth;
#X obj 73 348 route connected;
#X obj 235 391 print out;
#X obj 73 288 moocow/bytes2any;
#X connect 0 0 2 0;
#X connect 2 1 5 0;
#X connect 2 2 3 0;
#X connect 3 0 4 0;
#X connect 4 0 13 0;
#X connect 5 0 6 0;
#X connect 5 1 4 0;
#X connect 6 0 7 0;
#X connect 7 0 4 0;
#X connect 11 0 10 0;
#X connect 11 1 1 0;
#X connect 11 1 12 0;
#X connect 13 0 11 0;
#X restore 240 69 pd comport;
#N canvas 4 76 2160 1304 distorsion 0;
#X obj 371 21 inlet;
#X obj 74 217 clip~ -0.5 0.5;
#X obj 46 98 adc~;
#X obj 73 279 lop~;
#X obj 401 98 vsl 19 162 1000 5000 0 0 empty empty empty 0 -9 0 12 #fcfcfc #000000 #000000 0 1;
#X text 109 279 Filtro;
#X text 100 329 Vol;
#X obj 494 100 vsl 19 162 1 50 0 0 empty empty empty 0 -9 0 12 #fcfcfc #000000 #000000 0 1;
#X obj 76 167 *~;
#X obj 569 101 vsl 19 162 0 1 0 0 empty empty empty 0 -9 0 12 #fcfcfc #000000 #000000 0 1;
#X obj 72 329 *~;
#X text 185 218 Recorte de onda;
#X obj 78 131 *~;
#X text 108 168 Gain;
#X floatatom 397 280 5 0 0 0 - - - 0;
#X floatatom 493 286 5 0 0 0 - - - 0;
#X floatatom 568 288 5 0 0 0 - - - 0;
#X obj 373 46 route dis disfilter disgain disvol;
#X obj 134 129 s disonoff;
#X text 210 131 Manda 0 o 1 al led;
#X obj 192 69 == 0;
#X obj 43 130 *~;
#X obj 67 379 s~ distorsion;
#X floatatom 190 94 5 0 0 0 - - - 0;
#X obj 26 72 r~ audio;
#X connect 0 0 17 0;
#X connect 1 0 3 0;
#X connect 2 0 12 0;
#X connect 2 0 21 0;
#X connect 3 0 10 0;
#X connect 4 0 3 1;
#X connect 4 0 14 0;
#X connect 7 0 8 1;
#X connect 7 0 15 0;
#X connect 8 0 1 0;
#X connect 9 0 10 1;
#X connect 9 0 16 0;
#X connect 10 0 22 0;
#X connect 12 0 8 0;
#X connect 17 0 12 1;
#X connect 17 0 18 0;
#X connect 17 0 20 0;
#X connect 17 1 4 0;
#X connect 17 2 7 0;
#X connect 17 3 9 0;
#X connect 20 0 21 1;
#X connect 20 0 23 0;
#X connect 21 0 22 0;
#X connect 24 0 21 0;
#X connect 24 0 12 0;
#X restore 70 173 pd distorsion;
#N canvas 537 139 958 980 delay 0;
#X obj 487 153 inlet;
#X obj 183 300 +~;
#X obj 122 300 *~ 0.5;
#X obj 160 516 *~ 0.5;
#X obj 112 548 +~;
#X obj 144 548 +~;
#X text 278 419 Tiempo de delay (ms);
#X obj 161 422 delread~ eco 300;
#X obj 186 329 delwrite~ eco 2000;
#X text 319 328 Memoria de 2 segundos;
#X obj 495 215 vsl 19 162 1 1000 0 0 empty empty empty 0 -9 0 12 #fcfcfc #000000 #000000 0 1;
#X floatatom 494 386 5 0 0 0 - - - 0;
#X obj 261 462 *~;
#X obj 550 217 vsl 19 162 0 1 0 0 empty empty empty 0 -9 0 12 #fcfcfc #000000 #000000 0 1;
#X floatatom 549 388 5 0 0 0 - - - 0;
#X text 289 459 Ganancia del feedback (0.6 reomendado);
#X obj 121 253 *~;
#X obj 483 177 route del deltemp delgan;
#X obj 404 177 s delonoff;
#X obj 84 246 *~;
#X obj 226 211 == 0;
#X obj 103 199 r~ flanger;
#X obj 82 588 s~ delay;
#X connect 0 0 17 0;
#X connect 1 0 8 0;
#X connect 2 0 4 0;
#X connect 2 0 5 0;
#X connect 3 0 4 1;
#X connect 3 0 5 1;
#X connect 4 0 22 0;
#X connect 5 0 22 0;
#X connect 7 0 3 0;
#X connect 7 0 12 0;
#X connect 10 0 7 0;
#X connect 10 0 11 0;
#X connect 12 0 1 1;
#X connect 13 0 14 0;
#X connect 13 0 12 1;
#X connect 16 0 2 0;
#X connect 16 0 1 0;
#X connect 17 0 16 1;
#X connect 17 0 18 0;
#X connect 17 0 20 0;
#X connect 17 1 10 0;
#X connect 17 2 13 0;
#X connect 19 0 22 0;
#X connect 20 0 19 1;
#X connect 21 0 16 0;
#X connect 21 0 19 0;
#X restore 416 174 pd delay;
#N canvas 0 0 1924 1020 tremolo 0;
#X obj 249 240 *~ 0.5;
#X obj 249 261 +~ 0.5;
#X obj 213 276 *~;
#X obj 247 126 vsl 16 50 1 15 0 0 empty empty Velocidad 0 -9 0 10 #fcfcfc #000000 #000000 0 0;
#X obj 313 188 vsl 16 50 0 1 0 0 empty empty Diferencia\ (?) 0 -9 0 10 #fcfcfc #000000 #000000 0 0;
#X obj 249 218 osc~ 1;
#X text 520 30 El osc arranca en 1 asi se evita el silencio al activar el patch., f 24;
#X obj 369 237 vsl 16 60 0 1 0 0 empty empty Vol. 0 -9 0 10 #fcfcfc #000000 #000000 0 1;
#X obj 213 301 *~;
#X obj 255 19 inlet;
#X obj 251 43 route trem tremvel tremdif tremvol;
#X obj 162 44 s tremonoff;
#X floatatom 369 318 5 0 0 0 - - - 0;
#X floatatom 314 245 5 0 0 0 - - - 0;
#X floatatom 253 183 5 0 0 0 - - - 0;
#X text 520 96 El termino diferencia es un invento \, realmente no se el nombre de eso., f 24;
#X obj 208 75 == 0;
#X obj 163 243 *~;
#X obj 202 361 s~ tremolo;
#X obj 140 163 r~ wah;
#X obj 213 330 *~;
#X connect 0 0 1 0;
#X connect 1 0 2 1;
#X connect 2 0 8 0;
#X connect 3 0 5 0;
#X connect 3 0 14 0;
#X connect 4 0 0 1;
#X connect 4 0 13 0;
#X connect 5 0 0 0;
#X connect 7 0 8 1;
#X connect 7 0 12 0;
#X connect 8 0 20 0;
#X connect 9 0 10 0;
#X connect 10 0 11 0;
#X connect 10 0 16 0;
#X connect 10 0 20 1;
#X connect 10 1 3 0;
#X connect 10 2 4 0;
#X connect 10 3 7 0;
#X connect 16 0 17 1;
#X connect 17 0 18 0;
#X connect 19 0 17 0;
#X connect 19 0 2 0;
#X connect 20 0 18 0;
#X restore 251 173 pd tremolo;
#N canvas 0 0 1924 1020 flanger 0;
#X obj 364 331 osc~ 0.2;
#X obj 365 353 *~ 5;
#X obj 365 373 +~ 6;
#X obj 450 469 *~ 0.5;
#X obj 271 405 +~;
#X obj 364 225 vsl 15 80 0.05 5 0 0 empty empty Velocidad 0 -9 0 10 #fcfcfc #000000 #000000 0 0;
#X obj 444 270 vsl 15 80 1 10 0 0 empty empty Altura\ (?) 0 -9 0 10 #fcfcfc #000000 #000000 0 0;
#X obj 489 357 vsl 15 80 0 0.9 0 0 empty empty Claridad\ de\ que\ es\ lo\ que\ sucede\ (???) 0 -9 0 10 #fcfcfc #000000 #000000 0 0;
#X obj 365 392 vd~ del;
#X obj 451 494 delwrite~ del 100;
#X obj 422 28 vd~ del;
#X text 494 12 VariableDelay se encarga de leer la memoria de lo que le metas adentro a la variable "x" con el delwrite y poder leer esa data variando la velocidad/tiempo de lectura en el momento \, es decir \, es flexible en comparacion a delread.;
#X obj 266 142 inlet;
#X obj 272 437 *~;
#X obj 266 170 route flan flanvel flanalt flanclar;
#X floatatom 489 443 5 0 0 0 - - - 0;
#X floatatom 444 358 5 0 0 0 - - - 0;
#X floatatom 367 310 5 0 0 0 - - - 0;
#X obj 183 170 s flanonoff;
#X obj 45 343 r~ tremolo;
#X obj 253 221 == 0;
#X obj 176 435 *~;
#X obj 275 478 s~ flanger;
#X connect 0 0 1 0;
#X connect 1 0 2 0;
#X connect 2 0 8 0;
#X connect 3 0 9 0;
#X connect 4 0 13 0;
#X connect 5 0 0 0;
#X connect 5 0 17 0;
#X connect 6 0 1 1;
#X connect 6 0 16 0;
#X connect 7 0 3 1;
#X connect 7 0 15 0;
#X connect 8 0 3 0;
#X connect 8 0 4 1;
#X connect 12 0 14 0;
#X connect 13 0 22 0;
#X connect 14 0 18 0;
#X connect 14 0 13 1;
#X connect 14 0 20 0;
#X connect 14 1 5 0;
#X connect 14 2 6 0;
#X connect 14 3 7 0;
#X connect 19 0 4 0;
#X connect 19 0 9 0;
#X connect 19 0 21 0;
#X connect 20 0 21 1;
#X connect 21 0 22 0;
#X restore 334 173 pd flanger;
#N canvas 157 191 1920 997 ring_modulator 0;
#X obj 164 252 *~;
#X obj 181 445 dac~;
#X obj 205 197 osc~;
#X floatatom 208 158 5 0 0 0 - - - 0;
#X obj 206 116 hsl 50 15 50 1500 0 0 empty empty freq -2 -10 0 12 #fcfcfc #000000 #000000 0 1;
#X obj 181 328 *~;
#X floatatom 264 297 5 0 1 0 - - - 0;
#X obj 327 231 vsl 19 60 0 1 0 0 empty empty vol 0 -9 0 12 #fcfcfc #000000 #000000 0 1;
#X obj 271 206 osc~;
#X floatatom 274 171 5 0 0 0 - - - 0;
#X obj 271 131 hsl 100 15 50 1500 0 0 empty empty freq -2 -10 0 12 #fcfcfc #000000 #000000 0 1;
#X obj 182 293 *~;
#X obj 134 26 inlet;
#X obj 50 59 s ringonoff;
#X obj 12 209 r~ delay;
#X obj 133 284 == 0;
#X obj 73 347 *~;
#X obj 180 371 *~;
#X obj 260 396 *~;
#X obj 135 57 route ring ringfreq1 ringfreq2 ringvol volumenlimpio;
#X obj 421 193 vsl 19 162 0 1 0 0 empty empty VolumenLimpio 0 -9 0 12 #fcfcfc #000000 #000000 0 1;
#X floatatom 418 394 5 0 0 0 - - - 0;
#X connect 0 0 11 0;
#X connect 2 0 0 1;
#X connect 3 0 2 0;
#X connect 4 0 3 0;
#X connect 5 0 17 0;
#X connect 6 0 5 1;
#X connect 7 0 6 0;
#X connect 8 0 11 1;
#X connect 9 0 8 0;
#X connect 10 0 9 0;
#X connect 11 0 5 0;
#X connect 12 0 19 0;
#X connect 14 0 16 0;
#X connect 14 0 0 0;
#X connect 15 0 16 1;
#X connect 16 0 18 0;
#X connect 17 0 1 0;
#X connect 17 0 1 1;
#X connect 18 0 1 0;
#X connect 18 0 1 1;
#X connect 19 0 13 0;
#X connect 19 0 15 0;
#X connect 19 0 17 1;
#X connect 19 1 4 0;
#X connect 19 2 10 0;
#X connect 19 3 7 0;
#X connect 19 4 20 0;
#X connect 20 0 18 1;
#X connect 20 0 21 0;
#X restore 485 174 pd ring_modulator;
#X obj 79 433 arduino;
#X msg 78 308 devices;
#X msg 144 352 open 7;
#X obj 143 308 loadbang;
#X obj 148 329 t b b;
#X text 208 309 Tira Bang al iniciar el archivo;
#X text 192 330 Tira varios bangs de una;
#X text 203 355 Abre el COM del arduino;
#X text 299 397 Tiempo para que el NANO reaccione;
#X msg 218 429 digitalIns 1;
#X text 320 430 Hace que el Digital mande datos;
#X text 67 256 Controladores fisicos;
#X obj 231 849 r disonoff;
#X obj 231 820 r delonoff;
#X obj 231 790 r tremonoff;
#X text 176 492 Efectos;
#X obj 232 764 r flanonoff;
#X obj 231 737 r ringonoff;
#X obj 231 879 r Bluetooth;
#N canvas 4 0 2160 1304 wahwah 0;
#X obj 536 264 osc~;
#X obj 574 240 hsl 162 19 0 10 0 0 empty empty empty -2 -10 0 12 #fcfcfc #000000 #000000 0 1;
#X obj 535 310 *~;
#X obj 536 362 +~;
#X obj 570 287 hsl 162 19 0 1500 0 0 empty empty empty -2 -10 0 12 #fcfcfc #000000 #000000 0 1;
#X obj 570 339 hsl 162 19 0 3000 0 0 empty empty empty -2 -10 0 12 #fcfcfc #000000 #000000 0 1;
#X obj 189 415 vcf~, f 15;
#X obj 294 311 hsl 162 19 0 10 0 0 empty empty empty -2 -10 0 12 #fcfcfc #000000 #000000 0 1;
#X obj 190 389 *~;
#X obj 238 363 hsl 162 19 0 1 0 0 empty empty empty -2 -10 0 12 #fcfcfc #000000 #000000 0 1;
#X floatatom 299 336 5 0 0 0 - - - 0;
#X floatatom 567 363 5 0 0 0 - - - 0;
#X floatatom 566 310 5 0 0 0 - - - 0;
#X floatatom 572 263 5 0 0 0 - - - 0;
#X floatatom 234 388 5 0 0 0 - - - 0;
#X text 464 311 Filtro;
#X obj 176 37 inlet;
#X obj 188 446 *~;
#X text 743 239 Velocidad;
#X text 405 365 Vol;
#X text 741 337 Caja;
#X text 737 285 Fuerza;
#X obj 176 62 route wah wahvol wahfilter wahvel wahfuerza wahcaja;
#X obj 167 213 == 0;
#X obj 136 440 *~;
#X obj 167 470 s~ wah;
#X obj 47 340 r~ distorsion;
#X obj 74 142 s wahonoff;
#X connect 0 0 2 0;
#X connect 1 0 0 0;
#X connect 1 0 13 0;
#X connect 2 0 3 0;
#X connect 3 0 6 1;
#X connect 4 0 2 1;
#X connect 4 0 12 0;
#X connect 5 0 3 1;
#X connect 5 0 11 0;
#X connect 6 0 17 0;
#X connect 7 0 10 0;
#X connect 7 0 6 2;
#X connect 8 0 6 0;
#X connect 9 0 8 1;
#X connect 9 0 14 0;
#X connect 16 0 22 0;
#X connect 17 0 25 0;
#X connect 22 0 17 1;
#X connect 22 0 23 0;
#X connect 22 0 27 0;
#X connect 22 1 9 0;
#X connect 22 2 7 0;
#X connect 22 3 1 0;
#X connect 22 4 4 0;
#X connect 22 5 5 0;
#X connect 23 0 24 1;
#X connect 24 0 25 0;
#X connect 26 0 24 0;
#X connect 26 0 8 0;
#X restore 176 173 pd wahwah;
#X msg 122 880 digital 13 \$1;
#X msg 123 850 digital 2 \$1;
#X msg 122 820 digital 3 \$1;
#X msg 122 790 digital 4 \$1;
#X msg 123 764 digital 5 \$1;
#X msg 122 737 digital 6 \$1;
#X obj 236 267 bng 19 250 50 0 empty empty empty 0 -10 0 12 #fcfcfc #000000 #000000;
#X obj 220 397 delay 5000;
#X obj 356 525 route ps1 ps2 ps3 ps4;
#X msg 354 555 digital 12 \$1;
#X msg 355 578 digital 11 \$1;
#X msg 354 602 digital 10 \$1;
#X msg 355 627 digital 9 \$1;
#X text 396 496 Presets;
#X obj 628 628 tgl 19 0 empty empty empty 0 -10 0 12 #fcfcfc #000000 #000000 0 1;
#X obj 791 415 *~ 1;
#X obj 791 389 readsf~;
#X msg 727 363 start;
#X msg 726 335 stop;
#X obj 849 417 bng 19 250 50 0 empty empty ON 0 -10 0 12 #fcfcfc #000000 #000000;
#X obj 850 442 t b b;
#X text 755 264 Prueba de sonido;
#X obj 726 307 loadbang;
#X obj 769 442 s~ audio;
#X obj 234 713 r wahonoff;
#X msg 125 713 digital 7 \$1;
#X msg 240 21 devices;
#X text 408 41 Reemplazar el "#" por tu puerto COM \, para más información leer el archivo README.md del repositorio de github;
#X msg 789 363 open Prueba.wav;
#X obj 240 45 comport/comport # 9600;
#X connect 0 0 1 0;
#X connect 0 0 2 0;
#X connect 0 0 3 0;
#X connect 0 0 4 0;
#X connect 0 0 5 0;
#X connect 0 0 25 0;
#X connect 0 0 34 0;
#X connect 7 0 6 0;
#X connect 8 0 6 0;
#X connect 9 0 10 0;
#X connect 10 0 33 0;
#X connect 10 1 8 0;
#X connect 15 0 6 0;
#X connect 18 0 27 0;
#X connect 19 0 28 0;
#X connect 20 0 29 0;
#X connect 22 0 30 0;
#X connect 23 0 31 0;
#X connect 24 0 26 0;
#X connect 26 0 6 0;
#X connect 27 0 6 0;
#X connect 28 0 6 0;
#X connect 29 0 6 0;
#X connect 30 0 6 0;
#X connect 31 0 6 0;
#X connect 32 0 10 0;
#X connect 33 0 15 0;
#X connect 34 0 35 0;
#X connect 34 1 36 0;
#X connect 34 2 37 0;
#X connect 34 3 38 0;
#X connect 35 0 6 0;
#X connect 36 0 6 0;
#X connect 37 0 6 0;
#X connect 38 0 6 0;
#X connect 40 0 38 0;
#X connect 41 0 49 0;
#X connect 42 0 41 0;
#X connect 42 1 45 0;
#X connect 43 0 42 0;
#X connect 44 0 42 0;
#X connect 45 0 46 0;
#X connect 46 0 43 0;
#X connect 46 1 54 0;
#X connect 48 0 44 0;
#X connect 50 0 51 0;
#X connect 51 0 6 0;
#X connect 52 0 55 0;
#X connect 54 0 42 0;
#X connect 55 0 0 0;
